<svg id="visual" viewBox="0 0 900 600" width="900" height="600" xmlns="http://www.w3.org/2000/svg" xmlns:xlink="http://www.w3.org/1999/xlink" version="1.1"><rect x="0" y="0" width="900" height="600" fill="#020202"></rect><g transform="translate(454.7602911503463 302.3072080373672)"><path d="M92.7 -151.8C131.4 -119.4 181.7 -112.7 201.5 -86.9C221.3 -61 210.6 -16.1 199.3 25.2C188 66.5 176 104.3 153.5 136.5C131 168.6 98.1 195.1 57.5 216.4C17 237.6 -31.1 253.6 -76.8 246.9C-122.6 240.2 -166 210.8 -186.7 170.8C-207.5 130.7 -205.7 80 -211.3 31.3C-216.9 -17.4 -229.9 -64.2 -215.5 -99.6C-201.2 -135.1 -159.5 -159.2 -119.1 -190.7C-78.6 -222.3 -39.3 -261.1 -6.1 -251.6C27 -242.1 54.1 -184.1 92.7 -151.8" fill="#5DFCCA"></path></g></svg>