<svg id="visual" viewBox="0 0 900 600" width="900" height="600" xmlns="http://www.w3.org/2000/svg" xmlns:xlink="http://www.w3.org/1999/xlink" version="1.1"><rect x="0" y="0" width="900" height="600" fill="#1d1d1d"></rect><g transform="translate(495.3795753065176 283.5974981032872)"><path d="M143.6 -164.1C168 -150.6 157.4 -88.2 138.4 -46.5C119.5 -4.7 92.2 16.4 83.8 64.7C75.3 113 85.7 188.5 68.9 198.7C52.1 208.9 8.1 153.8 -51.2 134.8C-110.5 115.8 -185.2 132.9 -221 109.1C-256.9 85.2 -254 20.5 -233.5 -31.7C-213.1 -83.9 -175 -123.5 -133.1 -134C-91.3 -144.4 -45.6 -125.7 7 -134C59.6 -142.3 119.1 -177.6 143.6 -164.1" fill="#BB004B"></path></g></svg>