<svg id="visual" viewBox="0 0 900 600" width="900" height="600" xmlns="http://www.w3.org/2000/svg" xmlns:xlink="http://www.w3.org/1999/xlink" version="1.1"><rect x="0" y="0" width="900" height="600" fill="#1d1d1d"></rect><g transform="translate(421.4581249038703 368.91251601803225)"><path d="M303.1 -321.7C381.2 -295.7 425 -189.2 430.8 -86.3C436.6 16.6 404.5 115.8 333.9 150.1C263.2 184.4 154.1 153.9 77.7 157.4C1.3 160.9 -42.3 198.4 -70 189.5C-97.6 180.6 -109.4 125.3 -171.3 72.5C-233.1 19.8 -345 -30.4 -369.2 -94.9C-393.3 -159.4 -329.7 -238.3 -253.6 -264.7C-177.4 -291.1 -88.7 -265 11.9 -279.2C112.5 -293.4 225 -347.8 303.1 -321.7" fill="#BB004B"></path></g></svg>