<svg id="visual" viewBox="0 0 900 600" width="900" height="600" xmlns="http://www.w3.org/2000/svg" xmlns:xlink="http://www.w3.org/1999/xlink" version="1.1"><rect x="0" y="0" width="900" height="600" fill="#1d1d1d"></rect><g transform="translate(459.16365810206776 347.2708276760912)"><path d="M75.5 -103.6C111.1 -60.1 162.4 -48.9 177.7 -22.4C193 4 172.3 45.8 148.9 85.6C125.4 125.4 99.3 163.2 67.7 166C36.1 168.8 -0.9 136.6 -23.9 109.3C-47 82 -56 59.8 -86.4 35.9C-116.8 12 -168.7 -13.4 -190 -58C-211.3 -102.5 -202.1 -166.2 -165.3 -209.5C-128.6 -252.9 -64.3 -275.9 -22.2 -249.5C19.9 -223.1 39.9 -147.2 75.5 -103.6" fill="#BB004B"></path></g></svg>