<svg id="visual" viewBox="0 0 900 600" width="900" height="600" xmlns="http://www.w3.org/2000/svg" xmlns:xlink="http://www.w3.org/1999/xlink" version="1.1"><rect x="0" y="0" width="900" height="600" fill="#020202"></rect><g transform="translate(455.3447434071853 309.8389472923516)"><path d="M132.9 -220.7C158.1 -190.7 154.5 -129.8 174.6 -81.1C194.7 -32.5 238.4 4.1 232.1 31.9C225.9 59.8 169.6 79 135.9 117.5C102.2 156 90.9 213.8 63.3 227.1C35.7 240.5 -8.4 209.5 -51.6 190.2C-94.9 170.9 -137.4 163.4 -171.5 139.8C-205.7 116.2 -231.5 76.6 -240.1 33.1C-248.6 -10.5 -239.8 -58 -224 -106.2C-208.1 -154.5 -185.1 -203.4 -146.6 -227.3C-108.1 -251.3 -54.1 -250.1 -0.1 -250C53.9 -249.8 107.8 -250.7 132.9 -220.7" fill="#5DFCCA"></path></g></svg>