<svg id="visual" viewBox="0 0 900 600" width="900" height="600" xmlns="http://www.w3.org/2000/svg" xmlns:xlink="http://www.w3.org/1999/xlink" version="1.1"><rect x="0" y="0" width="900" height="600" fill="#1d1d1d"></rect><g transform="translate(432.234394070023 257.64358536429785)"><path d="M258.9 -242.9C345 -236.2 431 -163.7 455 -73.5C478.9 16.7 440.8 124.6 367.7 175.7C294.6 226.7 186.4 221 96.3 245.5C6.2 270 -66 324.8 -146.6 328C-227.2 331.1 -316.3 282.5 -370.2 205.7C-424.2 128.9 -443 23.7 -410.8 -57.4C-378.6 -138.6 -295.4 -195.7 -218.4 -204C-141.4 -212.3 -70.7 -171.8 7.8 -181.1C86.3 -190.4 172.7 -249.6 258.9 -242.9" fill="#BB004B"></path></g></svg>