<svg id="visual" viewBox="0 0 1440 320" width="1440" height="320" xmlns="http://www.w3.org/2000/svg" xmlns:xlink="http://www.w3.org/1999/xlink" version="1.1"><rect x="0" y="0" width="1440" height="320" fill="#020202"></rect><path d="M0 229L13.3 233C26.7 237 53.3 245 80 243.7C106.7 242.3 133.3 231.7 160 231.7C186.7 231.7 213.3 242.3 240 233C266.7 223.7 293.3 194.3 320 180.5C346.7 166.7 373.3 168.3 400 177C426.7 185.7 453.3 201.3 480 216.2C506.7 231 533.3 245 560 245.7C586.7 246.3 613.3 233.7 640 222.5C666.7 211.3 693.3 201.7 720 199.8C746.7 198 773.3 204 800 208.7C826.7 213.3 853.3 216.7 880 224.3C906.7 232 933.3 244 960 236.3C986.7 228.7 1013.3 201.3 1040 201.8C1066.7 202.3 1093.3 230.7 1120 244.7C1146.7 258.7 1173.3 258.3 1200 254.8C1226.7 251.3 1253.3 244.7 1280 229.3C1306.7 214 1333.3 190 1360 191.3C1386.7 192.7 1413.3 219.3 1426.7 232.7L1440 246L1440 321L1426.7 321C1413.3 321 1386.7 321 1360 321C1333.3 321 1306.7 321 1280 321C1253.3 321 1226.7 321 1200 321C1173.3 321 1146.7 321 1120 321C1093.3 321 1066.7 321 1040 321C1013.3 321 986.7 321 960 321C933.3 321 906.7 321 880 321C853.3 321 826.7 321 800 321C773.3 321 746.7 321 720 321C693.3 321 666.7 321 640 321C613.3 321 586.7 321 560 321C533.3 321 506.7 321 480 321C453.3 321 426.7 321 400 321C373.3 321 346.7 321 320 321C293.3 321 266.7 321 240 321C213.3 321 186.7 321 160 321C133.3 321 106.7 321 80 321C53.3 321 26.7 321 13.3 321L0 321Z" fill="#fa7268"></path><path d="M0 225L13.3 231.2C26.7 237.3 53.3 249.7 80 255.2C106.7 260.7 133.3 259.3 160 250.2C186.7 241 213.3 224 240 214.3C266.7 204.7 293.3 202.3 320 202.5C346.7 202.7 373.3 205.3 400 206.3C426.7 207.3 453.3 206.7 480 215.3C506.7 224 533.3 242 560 240.8C586.7 239.7 613.3 219.3 640 213.5C666.7 207.7 693.3 216.3 720 220.5C746.7 224.7 773.3 224.3 800 228.5C826.7 232.7 853.3 241.3 880 243.2C906.7 245 933.3 240 960 230.8C986.7 221.7 1013.3 208.3 1040 213.8C1066.7 219.3 1093.3 243.7 1120 244.8C1146.7 246 1173.3 224 1200 211.8C1226.7 199.7 1253.3 197.3 1280 205.5C1306.7 213.7 1333.3 232.3 1360 237.7C1386.7 243 1413.3 235 1426.7 231L1440 227L1440 321L1426.7 321C1413.3 321 1386.7 321 1360 321C1333.3 321 1306.7 321 1280 321C1253.3 321 1226.7 321 1200 321C1173.3 321 1146.7 321 1120 321C1093.3 321 1066.7 321 1040 321C1013.3 321 986.7 321 960 321C933.3 321 906.7 321 880 321C853.3 321 826.7 321 800 321C773.3 321 746.7 321 720 321C693.3 321 666.7 321 640 321C613.3 321 586.7 321 560 321C533.3 321 506.7 321 480 321C453.3 321 426.7 321 400 321C373.3 321 346.7 321 320 321C293.3 321 266.7 321 240 321C213.3 321 186.7 321 160 321C133.3 321 106.7 321 80 321C53.3 321 26.7 321 13.3 321L0 321Z" fill="#ef5f67"></path><path d="M0 247L13.3 248.5C26.7 250 53.3 253 80 257C106.7 261 133.3 266 160 266.3C186.7 266.7 213.3 262.3 240 263.2C266.7 264 293.3 270 320 264.5C346.7 259 373.3 242 400 238.2C426.7 234.3 453.3 243.7 480 248C506.7 252.3 533.3 251.7 560 248.7C586.7 245.7 613.3 240.3 640 237.8C666.7 235.3 693.3 235.7 720 235.3C746.7 235 773.3 234 800 231C826.7 228 853.3 223 880 231C906.7 239 933.3 260 960 270.7C986.7 281.3 1013.3 281.7 1040 281.5C1066.7 281.3 1093.3 280.7 1120 272.3C1146.7 264 1173.3 248 1200 238.3C1226.7 228.7 1253.3 225.3 1280 228.7C1306.7 232 1333.3 242 1360 245.7C1386.7 249.3 1413.3 246.7 1426.7 245.3L1440 244L1440 321L1426.7 321C1413.3 321 1386.7 321 1360 321C1333.3 321 1306.7 321 1280 321C1253.3 321 1226.7 321 1200 321C1173.3 321 1146.7 321 1120 321C1093.3 321 1066.7 321 1040 321C1013.3 321 986.7 321 960 321C933.3 321 906.7 321 880 321C853.3 321 826.7 321 800 321C773.3 321 746.7 321 720 321C693.3 321 666.7 321 640 321C613.3 321 586.7 321 560 321C533.3 321 506.7 321 480 321C453.3 321 426.7 321 400 321C373.3 321 346.7 321 320 321C293.3 321 266.7 321 240 321C213.3 321 186.7 321 160 321C133.3 321 106.7 321 80 321C53.3 321 26.7 321 13.3 321L0 321Z" fill="#e34c67"></path><path d="M0 294L13.3 290.2C26.7 286.3 53.3 278.7 80 278.5C106.7 278.3 133.3 285.7 160 286.7C186.7 287.7 213.3 282.3 240 275.3C266.7 268.3 293.3 259.7 320 263.5C346.7 267.3 373.3 283.7 400 285.3C426.7 287 453.3 274 480 273.7C506.7 273.3 533.3 285.7 560 292.2C586.7 298.7 613.3 299.3 640 298.2C666.7 297 693.3 294 720 294C746.7 294 773.3 297 800 289C826.7 281 853.3 262 880 259.3C906.7 256.7 933.3 270.3 960 279.2C986.7 288 1013.3 292 1040 287.5C1066.7 283 1093.3 270 1120 263.3C1146.7 256.7 1173.3 256.3 1200 260C1226.7 263.7 1253.3 271.3 1280 277C1306.7 282.7 1333.3 286.3 1360 280.8C1386.7 275.3 1413.3 260.7 1426.7 253.3L1440 246L1440 321L1426.7 321C1413.3 321 1386.7 321 1360 321C1333.3 321 1306.7 321 1280 321C1253.3 321 1226.7 321 1200 321C1173.3 321 1146.7 321 1120 321C1093.3 321 1066.7 321 1040 321C1013.3 321 986.7 321 960 321C933.3 321 906.7 321 880 321C853.3 321 826.7 321 800 321C773.3 321 746.7 321 720 321C693.3 321 666.7 321 640 321C613.3 321 586.7 321 560 321C533.3 321 506.7 321 480 321C453.3 321 426.7 321 400 321C373.3 321 346.7 321 320 321C293.3 321 266.7 321 240 321C213.3 321 186.7 321 160 321C133.3 321 106.7 321 80 321C53.3 321 26.7 321 13.3 321L0 321Z" fill="#d53867"></path><path d="M0 315L13.3 312.2C26.7 309.3 53.3 303.7 80 296.5C106.7 289.3 133.3 280.7 160 277.5C186.7 274.3 213.3 276.7 240 282.8C266.7 289 293.3 299 320 297.8C346.7 296.7 373.3 284.3 400 283.5C426.7 282.7 453.3 293.3 480 294.8C506.7 296.3 533.3 288.7 560 284.8C586.7 281 613.3 281 640 284.2C666.7 287.3 693.3 293.7 720 297.5C746.7 301.3 773.3 302.7 800 303.2C826.7 303.7 853.3 303.3 880 302.3C906.7 301.3 933.3 299.7 960 300.8C986.7 302 1013.3 306 1040 301.5C1066.7 297 1093.3 284 1120 279.8C1146.7 275.7 1173.3 280.3 1200 281.3C1226.7 282.3 1253.3 279.7 1280 280.3C1306.7 281 1333.3 285 1360 286C1386.7 287 1413.3 285 1426.7 284L1440 283L1440 321L1426.7 321C1413.3 321 1386.7 321 1360 321C1333.3 321 1306.7 321 1280 321C1253.3 321 1226.7 321 1200 321C1173.3 321 1146.7 321 1120 321C1093.3 321 1066.7 321 1040 321C1013.3 321 986.7 321 960 321C933.3 321 906.7 321 880 321C853.3 321 826.7 321 800 321C773.3 321 746.7 321 720 321C693.3 321 666.7 321 640 321C613.3 321 586.7 321 560 321C533.3 321 506.7 321 480 321C453.3 321 426.7 321 400 321C373.3 321 346.7 321 320 321C293.3 321 266.7 321 240 321C213.3 321 186.7 321 160 321C133.3 321 106.7 321 80 321C53.3 321 26.7 321 13.3 321L0 321Z" fill="#c62368"></path></svg>