<svg id="visual" viewBox="0 0 900 450" width="900" height="450" xmlns="http://www.w3.org/2000/svg" xmlns:xlink="http://www.w3.org/1999/xlink" version="1.1"><rect x="0" y="0" width="900" height="450" fill="#2b2c2f"></rect><path d="M0 285L15 286.5C30 288 60 291 90 289C120 287 150 280 180 283.7C210 287.3 240 301.7 270 308.5C300 315.3 330 314.7 360 317.2C390 319.7 420 325.3 450 318.3C480 311.3 510 291.7 540 278.7C570 265.7 600 259.3 630 256C660 252.7 690 252.3 720 258.2C750 264 780 276 810 292.5C840 309 870 330 885 340.5L900 351L900 451L885 451C870 451 840 451 810 451C780 451 750 451 720 451C690 451 660 451 630 451C600 451 570 451 540 451C510 451 480 451 450 451C420 451 390 451 360 451C330 451 300 451 270 451C240 451 210 451 180 451C150 451 120 451 90 451C60 451 30 451 15 451L0 451Z" fill="#715df2"></path><path d="M0 312L15 313.3C30 314.7 60 317.3 90 312C120 306.7 150 293.3 180 301.7C210 310 240 340 270 345.3C300 350.7 330 331.3 360 318.5C390 305.7 420 299.3 450 293.8C480 288.3 510 283.7 540 285.5C570 287.3 600 295.7 630 302.8C660 310 690 316 720 316.2C750 316.3 780 310.7 810 305.3C840 300 870 295 885 292.5L900 290L900 451L885 451C870 451 840 451 810 451C780 451 750 451 720 451C690 451 660 451 630 451C600 451 570 451 540 451C510 451 480 451 450 451C420 451 390 451 360 451C330 451 300 451 270 451C240 451 210 451 180 451C150 451 120 451 90 451C60 451 30 451 15 451L0 451Z" fill="#6d52f6"></path><path d="M0 340L15 346.7C30 353.3 60 366.7 90 368.8C120 371 150 362 180 355.5C210 349 240 345 270 345C300 345 330 349 360 354.8C390 360.7 420 368.3 450 368C480 367.7 510 359.3 540 356.3C570 353.3 600 355.7 630 349.5C660 343.3 690 328.7 720 323C750 317.3 780 320.7 810 331.2C840 341.7 870 359.3 885 368.2L900 377L900 451L885 451C870 451 840 451 810 451C780 451 750 451 720 451C690 451 660 451 630 451C600 451 570 451 540 451C510 451 480 451 450 451C420 451 390 451 360 451C330 451 300 451 270 451C240 451 210 451 180 451C150 451 120 451 90 451C60 451 30 451 15 451L0 451Z" fill="#6a47f9"></path><path d="M0 330L15 330C30 330 60 330 90 338.3C120 346.7 150 363.3 180 373.3C210 383.3 240 386.7 270 388.7C300 390.7 330 391.3 360 389.3C390 387.3 420 382.7 450 377.3C480 372 510 366 540 369C570 372 600 384 630 388C660 392 690 388 720 381C750 374 780 364 810 360C840 356 870 358 885 359L900 360L900 451L885 451C870 451 840 451 810 451C780 451 750 451 720 451C690 451 660 451 630 451C600 451 570 451 540 451C510 451 480 451 450 451C420 451 390 451 360 451C330 451 300 451 270 451C240 451 210 451 180 451C150 451 120 451 90 451C60 451 30 451 15 451L0 451Z" fill="#6839fb"></path><path d="M0 365L15 369.2C30 373.3 60 381.7 90 381C120 380.3 150 370.7 180 375.5C210 380.3 240 399.7 270 400C300 400.3 330 381.7 360 376.3C390 371 420 379 450 380.5C480 382 510 377 540 379.5C570 382 600 392 630 392.5C660 393 690 384 720 386.8C750 389.7 780 404.3 810 409.2C840 414 870 409 885 406.5L900 404L900 451L885 451C870 451 840 451 810 451C780 451 750 451 720 451C690 451 660 451 630 451C600 451 570 451 540 451C510 451 480 451 450 451C420 451 390 451 360 451C330 451 300 451 270 451C240 451 210 451 180 451C150 451 120 451 90 451C60 451 30 451 15 451L0 451Z" fill="#6626fd"></path><path d="M0 396L15 401.8C30 407.7 60 419.3 90 418.7C120 418 150 405 180 400.7C210 396.3 240 400.7 270 402.5C300 404.3 330 403.7 360 409.8C390 416 420 429 450 427.3C480 425.7 510 409.3 540 406.7C570 404 600 415 630 421.8C660 428.7 690 431.3 720 430.5C750 429.7 780 425.3 810 424.7C840 424 870 427 885 428.5L900 430L900 451L885 451C870 451 840 451 810 451C780 451 750 451 720 451C690 451 660 451 630 451C600 451 570 451 540 451C510 451 480 451 450 451C420 451 390 451 360 451C330 451 300 451 270 451C240 451 210 451 180 451C150 451 120 451 90 451C60 451 30 451 15 451L0 451Z" fill="#6600ff"></path></svg>