<svg id="visual" viewBox="0 0 900 450" width="900" height="450" xmlns="http://www.w3.org/2000/svg" xmlns:xlink="http://www.w3.org/1999/xlink" version="1.1"><path d="M0 69L12.5 70.5C25 72 50 75 75 72C100 69 125 60 150 50.2C175 40.3 200 29.7 225 34.2C250 38.7 275 58.3 300 58.3C325 58.3 350 38.7 375 38.7C400 38.7 425 58.3 450 62.2C475 66 500 54 525 45C550 36 575 30 600 33.7C625 37.3 650 50.7 675 58.8C700 67 725 70 750 64.8C775 59.7 800 46.3 825 38.2C850 30 875 27 887.5 25.5L900 24L900 0L887.5 0C875 0 850 0 825 0C800 0 775 0 750 0C725 0 700 0 675 0C650 0 625 0 600 0C575 0 550 0 525 0C500 0 475 0 450 0C425 0 400 0 375 0C350 0 325 0 300 0C275 0 250 0 225 0C200 0 175 0 150 0C125 0 100 0 75 0C50 0 25 0 12.5 0L0 0Z" fill="#6600ff"></path><path d="M0 87L12.5 89.2C25 91.3 50 95.7 75 94.8C100 94 125 88 150 82.8C175 77.7 200 73.3 225 77.2C250 81 275 93 300 87C325 81 350 57 375 55.5C400 54 425 75 450 84.7C475 94.3 500 92.7 525 88.2C550 83.7 575 76.3 600 74.8C625 73.3 650 77.7 675 85.2C700 92.7 725 103.3 750 97.3C775 91.3 800 68.7 825 58.8C850 49 875 52 887.5 53.5L900 55L900 22L887.5 23.5C875 25 850 28 825 36.2C800 44.3 775 57.7 750 62.8C725 68 700 65 675 56.8C650 48.7 625 35.3 600 31.7C575 28 550 34 525 43C500 52 475 64 450 60.2C425 56.3 400 36.7 375 36.7C350 36.7 325 56.3 300 56.3C275 56.3 250 36.7 225 32.2C200 27.7 175 38.3 150 48.2C125 58 100 67 75 70C50 73 25 70 12.5 68.5L0 67Z" fill="#683afb"></path><path d="M0 127L12.5 126.3C25 125.7 50 124.3 75 125.2C100 126 125 129 150 126.7C175 124.3 200 116.7 225 115.8C250 115 275 121 300 123.3C325 125.7 350 124.3 375 127.3C400 130.3 425 137.7 450 145.2C475 152.7 500 160.3 525 158.2C550 156 575 144 600 140.2C625 136.3 650 140.7 675 149.7C700 158.7 725 172.3 750 171.7C775 171 800 156 825 138.7C850 121.3 875 101.7 887.5 91.8L900 82L900 53L887.5 51.5C875 50 850 47 825 56.8C800 66.7 775 89.3 750 95.3C725 101.3 700 90.7 675 83.2C650 75.7 625 71.3 600 72.8C575 74.3 550 81.7 525 86.2C500 90.7 475 92.3 450 82.7C425 73 400 52 375 53.5C350 55 325 79 300 85C275 91 250 79 225 75.2C200 71.3 175 75.7 150 80.8C125 86 100 92 75 92.8C50 93.7 25 89.3 12.5 87.2L0 85Z" fill="#6e54f5"></path><path d="M0 312L12.5 307.5C25 303 50 294 75 271.5C100 249 125 213 150 195C175 177 200 177 225 183.7C250 190.3 275 203.7 300 222.3C325 241 350 265 375 266.5C400 268 425 247 450 235C475 223 500 220 525 214.8C550 209.7 575 202.3 600 217.3C625 232.3 650 269.7 675 287.7C700 305.7 725 304.3 750 287.8C775 271.3 800 239.7 825 229.8C850 220 875 232 887.5 238L900 244L900 80L887.5 89.8C875 99.7 850 119.3 825 136.7C800 154 775 169 750 169.7C725 170.3 700 156.7 675 147.7C650 138.7 625 134.3 600 138.2C575 142 550 154 525 156.2C500 158.3 475 150.7 450 143.2C425 135.7 400 128.3 375 125.3C350 122.3 325 123.7 300 121.3C275 119 250 113 225 113.8C200 114.7 175 122.3 150 124.7C125 127 100 124 75 123.2C50 122.3 25 123.7 12.5 124.3L0 125Z" fill="#715df2"></path><path d="M0 339L12.5 344.2C25 349.3 50 359.7 75 346.8C100 334 125 298 150 280C175 262 200 262 225 261.3C250 260.7 275 259.3 300 270.7C325 282 350 306 375 313.5C400 321 425 312 450 303.7C475 295.3 500 287.7 525 284.7C550 281.7 575 283.3 600 294.7C625 306 650 327 675 343.5C700 360 725 372 750 365.2C775 358.3 800 332.7 825 317.7C850 302.7 875 298.3 887.5 296.2L900 294L900 242L887.5 236C875 230 850 218 825 227.8C800 237.7 775 269.3 750 285.8C725 302.3 700 303.7 675 285.7C650 267.7 625 230.3 600 215.3C575 200.3 550 207.7 525 212.8C500 218 475 221 450 233C425 245 400 266 375 264.5C350 263 325 239 300 220.3C275 201.7 250 188.3 225 181.7C200 175 175 175 150 193C125 211 100 247 75 269.5C50 292 25 301 12.5 305.5L0 310Z" fill="#6e54f5"></path><path d="M0 393L12.5 393C25 393 50 393 75 380.2C100 367.3 125 341.7 150 328.2C175 314.7 200 313.3 225 305.8C250 298.3 275 284.7 300 290.7C325 296.7 350 322.3 375 329.8C400 337.3 425 326.7 450 319.2C475 311.7 500 307.3 525 305.2C550 303 575 303 600 315C625 327 650 351 675 368.2C700 385.3 725 395.7 750 386.7C775 377.7 800 349.3 825 337.3C850 325.3 875 329.7 887.5 331.8L900 334L900 292L887.5 294.2C875 296.3 850 300.7 825 315.7C800 330.7 775 356.3 750 363.2C725 370 700 358 675 341.5C650 325 625 304 600 292.7C575 281.3 550 279.7 525 282.7C500 285.7 475 293.3 450 301.7C425 310 400 319 375 311.5C350 304 325 280 300 268.7C275 257.3 250 258.7 225 259.3C200 260 175 260 150 278C125 296 100 332 75 344.8C50 357.7 25 347.3 12.5 342.2L0 337Z" fill="#683afb"></path><path d="M0 451L12.5 451C25 451 50 451 75 451C100 451 125 451 150 451C175 451 200 451 225 451C250 451 275 451 300 451C325 451 350 451 375 451C400 451 425 451 450 451C475 451 500 451 525 451C550 451 575 451 600 451C625 451 650 451 675 451C700 451 725 451 750 451C775 451 800 451 825 451C850 451 875 451 887.5 451L900 451L900 332L887.5 329.8C875 327.7 850 323.3 825 335.3C800 347.3 775 375.7 750 384.7C725 393.7 700 383.3 675 366.2C650 349 625 325 600 313C575 301 550 301 525 303.2C500 305.3 475 309.7 450 317.2C425 324.7 400 335.3 375 327.8C350 320.3 325 294.7 300 288.7C275 282.7 250 296.3 225 303.8C200 311.3 175 312.7 150 326.2C125 339.7 100 365.3 75 378.2C50 391 25 391 12.5 391L0 391Z" fill="#6600ff"></path></svg>