<svg id="visual" viewBox="0 0 900 600" width="900" height="600" xmlns="http://www.w3.org/2000/svg" xmlns:xlink="http://www.w3.org/1999/xlink" version="1.1"><rect x="0" y="0" width="900" height="600" fill="#2b2c2f"></rect><defs><linearGradient id="grad1_0" x1="33.3%" y1="0%" x2="100%" y2="100%"><stop offset="20%" stop-color="#ff0066" stop-opacity="1"></stop><stop offset="80%" stop-color="#ff0066" stop-opacity="1"></stop></linearGradient></defs><defs><linearGradient id="grad1_1" x1="33.3%" y1="0%" x2="100%" y2="100%"><stop offset="20%" stop-color="#ff0066" stop-opacity="1"></stop><stop offset="80%" stop-color="#7a3e7d" stop-opacity="1"></stop></linearGradient></defs><defs><linearGradient id="grad1_2" x1="33.3%" y1="0%" x2="100%" y2="100%"><stop offset="20%" stop-color="#2b2c2f" stop-opacity="1"></stop><stop offset="80%" stop-color="#7a3e7d" stop-opacity="1"></stop></linearGradient></defs><defs><linearGradient id="grad2_0" x1="0%" y1="0%" x2="66.7%" y2="100%"><stop offset="20%" stop-color="#ff0066" stop-opacity="1"></stop><stop offset="80%" stop-color="#ff0066" stop-opacity="1"></stop></linearGradient></defs><defs><linearGradient id="grad2_1" x1="0%" y1="0%" x2="66.7%" y2="100%"><stop offset="20%" stop-color="#7a3e7d" stop-opacity="1"></stop><stop offset="80%" stop-color="#ff0066" stop-opacity="1"></stop></linearGradient></defs><defs><linearGradient id="grad2_2" x1="0%" y1="0%" x2="66.7%" y2="100%"><stop offset="20%" stop-color="#7a3e7d" stop-opacity="1"></stop><stop offset="80%" stop-color="#2b2c2f" stop-opacity="1"></stop></linearGradient></defs><g transform="translate(900, 0)"><path d="M0 324.5C-45.7 323.4 -91.5 322.3 -124.2 299.8C-156.9 277.3 -176.5 233.3 -200.1 200.1C-223.7 166.9 -251.2 144.5 -272.5 112.9C-293.9 81.3 -309.2 40.7 -324.5 0L0 0Z" fill="#433b5e"></path><path d="M0 216.3C-30.5 215.6 -61 214.9 -82.8 199.9C-104.6 184.9 -117.7 155.5 -133.4 133.4C-149.1 111.3 -167.4 96.3 -181.7 75.3C-196 54.2 -206.1 27.1 -216.3 0L0 0Z" fill="#c02e81"></path><path d="M0 108.2C-15.2 107.8 -30.5 107.4 -41.4 99.9C-52.3 92.4 -58.8 77.8 -66.7 66.7C-74.6 55.6 -83.7 48.2 -90.8 37.6C-98 27.1 -103.1 13.6 -108.2 0L0 0Z" fill="#ff0066"></path></g><g transform="translate(0, 600)"><path d="M0 -324.5C35.7 -297 71.5 -269.6 103.3 -249.4C135.2 -229.3 163.1 -216.5 198.7 -198.7C234.3 -180.9 277.6 -158.1 299.8 -124.2C322 -90.2 323.3 -45.1 324.5 0L0 0Z" fill="#433b5e"></path><path d="M0 -216.3C23.8 -198 47.7 -179.7 68.9 -166.3C90.1 -152.9 108.7 -144.3 132.5 -132.5C156.2 -120.6 185 -105.4 199.9 -82.8C214.7 -60.2 215.5 -30.1 216.3 0L0 0Z" fill="#c02e81"></path><path d="M0 -108.2C11.9 -99 23.8 -89.9 34.4 -83.1C45.1 -76.4 54.4 -72.2 66.2 -66.2C78.1 -60.3 92.5 -52.7 99.9 -41.4C107.3 -30.1 107.8 -15 108.2 0L0 0Z" fill="#ff0066"></path></g></svg>