<svg id="visual" viewBox="0 0 540 960" width="540" height="960" xmlns="http://www.w3.org/2000/svg" xmlns:xlink="http://www.w3.org/1999/xlink" version="1.1"><rect x="0" y="0" width="540" height="960" fill="#2b2c2f"></rect><path d="M0 717L9 709.5C18 702 36 687 54 687C72 687 90 702 108 707.7C126 713.3 144 709.7 162 695.8C180 682 198 658 216 648.8C234 639.7 252 645.3 270 655.8C288 666.3 306 681.7 324 677.5C342 673.3 360 649.7 378 627.5C396 605.3 414 584.7 432 574.3C450 564 468 564 486 569C504 574 522 584 531 589L540 594L540 961L531 961C522 961 504 961 486 961C468 961 450 961 432 961C414 961 396 961 378 961C360 961 342 961 324 961C306 961 288 961 270 961C252 961 234 961 216 961C198 961 180 961 162 961C144 961 126 961 108 961C90 961 72 961 54 961C36 961 18 961 9 961L0 961Z" fill="#715df2"></path><path d="M0 669L9 681.8C18 694.7 36 720.3 54 719.2C72 718 90 690 108 673.3C126 656.7 144 651.3 162 667.7C180 684 198 722 216 719.7C234 717.3 252 674.7 270 653.5C288 632.3 306 632.7 324 636.3C342 640 360 647 378 654.7C396 662.3 414 670.7 432 666.5C450 662.3 468 645.7 486 655.5C504 665.3 522 701.7 531 719.8L540 738L540 961L531 961C522 961 504 961 486 961C468 961 450 961 432 961C414 961 396 961 378 961C360 961 342 961 324 961C306 961 288 961 270 961C252 961 234 961 216 961C198 961 180 961 162 961C144 961 126 961 108 961C90 961 72 961 54 961C36 961 18 961 9 961L0 961Z" fill="#6c50f6"></path><path d="M0 801L9 796.5C18 792 36 783 54 767C72 751 90 728 108 726.3C126 724.7 144 744.3 162 750.7C180 757 198 750 216 756.3C234 762.7 252 782.3 270 788.2C288 794 306 786 324 787.3C342 788.7 360 799.3 378 787C396 774.7 414 739.3 432 728.8C450 718.3 468 732.7 486 750.8C504 769 522 791 531 802L540 813L540 961L531 961C522 961 504 961 486 961C468 961 450 961 432 961C414 961 396 961 378 961C360 961 342 961 324 961C306 961 288 961 270 961C252 961 234 961 216 961C198 961 180 961 162 961C144 961 126 961 108 961C90 961 72 961 54 961C36 961 18 961 9 961L0 961Z" fill="#6940fa"></path><path d="M0 838L9 830C18 822 36 806 54 800.8C72 795.7 90 801.3 108 812.8C126 824.3 144 841.7 162 842C180 842.3 198 825.7 216 820.2C234 814.7 252 820.3 270 814.3C288 808.3 306 790.7 324 783.7C342 776.7 360 780.3 378 792.7C396 805 414 826 432 838.5C450 851 468 855 486 850.7C504 846.3 522 833.7 531 827.3L540 821L540 961L531 961C522 961 504 961 486 961C468 961 450 961 432 961C414 961 396 961 378 961C360 961 342 961 324 961C306 961 288 961 270 961C252 961 234 961 216 961C198 961 180 961 162 961C144 961 126 961 108 961C90 961 72 961 54 961C36 961 18 961 9 961L0 961Z" fill="#672bfd"></path><path d="M0 908L9 901.5C18 895 36 882 54 875C72 868 90 867 108 865.5C126 864 144 862 162 870.3C180 878.7 198 897.3 216 897.8C234 898.3 252 880.7 270 880C288 879.3 306 895.7 324 902.5C342 909.3 360 906.7 378 901.3C396 896 414 888 432 882.8C450 877.7 468 875.3 486 869.3C504 863.3 522 853.7 531 848.8L540 844L540 961L531 961C522 961 504 961 486 961C468 961 450 961 432 961C414 961 396 961 378 961C360 961 342 961 324 961C306 961 288 961 270 961C252 961 234 961 216 961C198 961 180 961 162 961C144 961 126 961 108 961C90 961 72 961 54 961C36 961 18 961 9 961L0 961Z" fill="#6600ff"></path></svg>