<svg id="visual" viewBox="0 0 675 900" width="675" height="900" xmlns="http://www.w3.org/2000/svg" xmlns:xlink="http://www.w3.org/1999/xlink" version="1.1"><path d="M0 46L14 47.5C28 49 56 52 84.2 58C112.3 64 140.7 73 168.8 74.5C197 76 225 70 253.2 74.5C281.3 79 309.7 94 337.8 97C366 100 394 91 422 91C450 91 478 100 506.2 95.5C534.3 91 562.7 73 590.8 70C619 67 647 79 661 85L675 91L675 0L661 0C647 0 619 0 590.8 0C562.7 0 534.3 0 506.2 0C478 0 450 0 422 0C394 0 366 0 337.8 0C309.7 0 281.3 0 253.2 0C225 0 197 0 168.8 0C140.7 0 112.3 0 84.2 0C56 0 28 0 14 0L0 0Z" fill="#6600ff"></path><path d="M0 235L14 242.5C28 250 56 265 84.2 286C112.3 307 140.7 334 168.8 343C197 352 225 343 253.2 338.5C281.3 334 309.7 334 337.8 355C366 376 394 418 422 421C450 424 478 388 506.2 359.5C534.3 331 562.7 310 590.8 314.5C619 319 647 349 661 364L675 379L675 89L661 83C647 77 619 65 590.8 68C562.7 71 534.3 89 506.2 93.5C478 98 450 89 422 89C394 89 366 98 337.8 95C309.7 92 281.3 77 253.2 72.5C225 68 197 74 168.8 72.5C140.7 71 112.3 62 84.2 56C56 50 28 47 14 45.5L0 44Z" fill="#683afb"></path><path d="M0 334L14 347.5C28 361 56 388 84.2 412C112.3 436 140.7 457 168.8 479.5C197 502 225 526 253.2 533.5C281.3 541 309.7 532 337.8 529C366 526 394 529 422 518.5C450 508 478 484 506.2 467.5C534.3 451 562.7 442 590.8 448C619 454 647 475 661 485.5L675 496L675 377L661 362C647 347 619 317 590.8 312.5C562.7 308 534.3 329 506.2 357.5C478 386 450 422 422 419C394 416 366 374 337.8 353C309.7 332 281.3 332 253.2 336.5C225 341 197 350 168.8 341C140.7 332 112.3 305 84.2 284C56 263 28 248 14 240.5L0 233Z" fill="#6e54f5"></path><path d="M0 397L14 410.5C28 424 56 451 84.2 475C112.3 499 140.7 520 168.8 541C197 562 225 583 253.2 596.5C281.3 610 309.7 616 337.8 617.5C366 619 394 616 422 602.5C450 589 478 565 506.2 551.5C534.3 538 562.7 535 590.8 541C619 547 647 562 661 569.5L675 577L675 494L661 483.5C647 473 619 452 590.8 446C562.7 440 534.3 449 506.2 465.5C478 482 450 506 422 516.5C394 527 366 524 337.8 527C309.7 530 281.3 539 253.2 531.5C225 524 197 500 168.8 477.5C140.7 455 112.3 434 84.2 410C56 386 28 359 14 345.5L0 332Z" fill="#715df2"></path><path d="M0 451L14 475C28 499 56 547 84.2 581.5C112.3 616 140.7 637 168.8 661C197 685 225 712 253.2 713.5C281.3 715 309.7 691 337.8 686.5C366 682 394 697 422 689.5C450 682 478 652 506.2 637C534.3 622 562.7 622 590.8 628C619 634 647 646 661 652L675 658L675 575L661 567.5C647 560 619 545 590.8 539C562.7 533 534.3 536 506.2 549.5C478 563 450 587 422 600.5C394 614 366 617 337.8 615.5C309.7 614 281.3 608 253.2 594.5C225 581 197 560 168.8 539C140.7 518 112.3 497 84.2 473C56 449 28 422 14 408.5L0 395Z" fill="#6e54f5"></path><path d="M0 802L14 803.5C28 805 56 808 84.2 818.5C112.3 829 140.7 847 168.8 856C197 865 225 865 253.2 857.5C281.3 850 309.7 835 337.8 829C366 823 394 826 422 830.5C450 835 478 841 506.2 836.5C534.3 832 562.7 817 590.8 814C619 811 647 820 661 824.5L675 829L675 656L661 650C647 644 619 632 590.8 626C562.7 620 534.3 620 506.2 635C478 650 450 680 422 687.5C394 695 366 680 337.8 684.5C309.7 689 281.3 713 253.2 711.5C225 710 197 683 168.8 659C140.7 635 112.3 614 84.2 579.5C56 545 28 497 14 473L0 449Z" fill="#683afb"></path><path d="M0 901L14 901C28 901 56 901 84.2 901C112.3 901 140.7 901 168.8 901C197 901 225 901 253.2 901C281.3 901 309.7 901 337.8 901C366 901 394 901 422 901C450 901 478 901 506.2 901C534.3 901 562.7 901 590.8 901C619 901 647 901 661 901L675 901L675 827L661 822.5C647 818 619 809 590.8 812C562.7 815 534.3 830 506.2 834.5C478 839 450 833 422 828.5C394 824 366 821 337.8 827C309.7 833 281.3 848 253.2 855.5C225 863 197 863 168.8 854C140.7 845 112.3 827 84.2 816.5C56 806 28 803 14 801.5L0 800Z" fill="#6600ff"></path></svg>