<svg id="visual" viewBox="0 0 900 600" width="900" height="600" xmlns="http://www.w3.org/2000/svg" xmlns:xlink="http://www.w3.org/1999/xlink" version="1.1"><rect x="0" y="0" width="900" height="600" fill="#001220"></rect><defs><linearGradient id="grad1_0" x1="33.3%" y1="0%" x2="100%" y2="100%"><stop offset="20%" stop-color="#001220" stop-opacity="1"></stop><stop offset="80%" stop-color="#001220" stop-opacity="1"></stop></linearGradient></defs><defs><linearGradient id="grad2_0" x1="0%" y1="0%" x2="66.7%" y2="100%"><stop offset="20%" stop-color="#001220" stop-opacity="1"></stop><stop offset="80%" stop-color="#001220" stop-opacity="1"></stop></linearGradient></defs><g transform="translate(900, 0)"><path d="M0 324.5C-31.8 296.5 -63.5 268.5 -106.8 257.8C-150 247 -204.8 253.5 -229.5 229.5C-254.1 205.4 -248.8 150.9 -259.6 107.5C-270.4 64.2 -297.5 32.1 -324.5 0L0 0Z" fill="#6600FF"></path></g><g transform="translate(0, 600)"><path d="M0 -324.5C47.5 -325.5 95 -326.5 124.2 -299.8C153.4 -273.1 164.2 -218.7 183.8 -183.8C203.5 -149 231.9 -133.8 256.8 -106.4C281.7 -79 303.1 -39.5 324.5 0L0 0Z" fill="#6600FF"></path></g></svg>