<svg id="visual" viewBox="0 0 900 100" width="900" height="100" xmlns="http://www.w3.org/2000/svg" xmlns:xlink="http://www.w3.org/1999/xlink" version="1.1"><rect x="0" y="0" width="900" height="100" fill="#2b2c2f"></rect><path d="M0 74L8.8 75.8C17.7 77.7 35.3 81.3 53 83.2C70.7 85 88.3 85 106 81.7C123.7 78.3 141.3 71.7 159 70C176.7 68.3 194.3 71.7 212 70.7C229.7 69.7 247.3 64.3 265 65C282.7 65.7 300.3 72.3 318 76.2C335.7 80 353.3 81 371 78.8C388.7 76.7 406.3 71.3 423.8 72.5C441.3 73.7 458.7 81.3 476.2 80.8C493.7 80.3 511.3 71.7 529 71.3C546.7 71 564.3 79 582 82.3C599.7 85.7 617.3 84.3 635 84.7C652.7 85 670.3 87 688 87.2C705.7 87.3 723.3 85.7 741 85.2C758.7 84.7 776.3 85.3 794 82.7C811.7 80 829.3 74 847 72.7C864.7 71.3 882.3 74.7 891.2 76.3L900 78L900 101L891.2 101C882.3 101 864.7 101 847 101C829.3 101 811.7 101 794 101C776.3 101 758.7 101 741 101C723.3 101 705.7 101 688 101C670.3 101 652.7 101 635 101C617.3 101 599.7 101 582 101C564.3 101 546.7 101 529 101C511.3 101 493.7 101 476.2 101C458.7 101 441.3 101 423.8 101C406.3 101 388.7 101 371 101C353.3 101 335.7 101 318 101C300.3 101 282.7 101 265 101C247.3 101 229.7 101 212 101C194.3 101 176.7 101 159 101C141.3 101 123.7 101 106 101C88.3 101 70.7 101 53 101C35.3 101 17.7 101 8.8 101L0 101Z" fill="#6600FF" stroke-linecap="round" stroke-linejoin="miter"></path></svg>