<svg id="visual" viewBox="0 0 960 300" width="960" height="300" xmlns="http://www.w3.org/2000/svg" xmlns:xlink="http://www.w3.org/1999/xlink" version="1.1"><rect x="0" y="0" width="960" height="300" fill="#2b2c2f"></rect><path d="M0 195L16 191.8C32 188.7 64 182.3 96 186C128 189.7 160 203.3 192 203.5C224 203.7 256 190.3 288 191.2C320 192 352 207 384 210.7C416 214.3 448 206.7 480 204.5C512 202.3 544 205.7 576 208C608 210.3 640 211.7 672 210.2C704 208.7 736 204.3 768 202.2C800 200 832 200 864 196.7C896 193.3 928 186.7 944 183.3L960 180L960 301L944 301C928 301 896 301 864 301C832 301 800 301 768 301C736 301 704 301 672 301C640 301 608 301 576 301C544 301 512 301 480 301C448 301 416 301 384 301C352 301 320 301 288 301C256 301 224 301 192 301C160 301 128 301 96 301C64 301 32 301 16 301L0 301Z" fill="#6600ff"></path><path d="M0 202L16 205.3C32 208.7 64 215.3 96 221.5C128 227.7 160 233.3 192 230.7C224 228 256 217 288 216.5C320 216 352 226 384 226.2C416 226.3 448 216.7 480 210.2C512 203.7 544 200.3 576 200.3C608 200.3 640 203.7 672 205.2C704 206.7 736 206.3 768 210.7C800 215 832 224 864 223.8C896 223.7 928 214.3 944 209.7L960 205L960 301L944 301C928 301 896 301 864 301C832 301 800 301 768 301C736 301 704 301 672 301C640 301 608 301 576 301C544 301 512 301 480 301C448 301 416 301 384 301C352 301 320 301 288 301C256 301 224 301 192 301C160 301 128 301 96 301C64 301 32 301 16 301L0 301Z" fill="#672bfd"></path><path d="M0 228L16 228.8C32 229.7 64 231.3 96 232.5C128 233.7 160 234.3 192 231.8C224 229.3 256 223.7 288 225.5C320 227.3 352 236.7 384 242.8C416 249 448 252 480 247.8C512 243.7 544 232.3 576 232C608 231.7 640 242.3 672 243.2C704 244 736 235 768 233.7C800 232.3 832 238.7 864 242.3C896 246 928 247 944 247.5L960 248L960 301L944 301C928 301 896 301 864 301C832 301 800 301 768 301C736 301 704 301 672 301C640 301 608 301 576 301C544 301 512 301 480 301C448 301 416 301 384 301C352 301 320 301 288 301C256 301 224 301 192 301C160 301 128 301 96 301C64 301 32 301 16 301L0 301Z" fill="#6940fa"></path><path d="M0 264L16 261.5C32 259 64 254 96 254.5C128 255 160 261 192 262C224 263 256 259 288 255.5C320 252 352 249 384 248.2C416 247.3 448 248.7 480 251.7C512 254.7 544 259.3 576 259.2C608 259 640 254 672 253.3C704 252.7 736 256.3 768 258.8C800 261.3 832 262.7 864 263.3C896 264 928 264 944 264L960 264L960 301L944 301C928 301 896 301 864 301C832 301 800 301 768 301C736 301 704 301 672 301C640 301 608 301 576 301C544 301 512 301 480 301C448 301 416 301 384 301C352 301 320 301 288 301C256 301 224 301 192 301C160 301 128 301 96 301C64 301 32 301 16 301L0 301Z" fill="#6c50f6"></path><path d="M0 272L16 272.7C32 273.3 64 274.7 96 275.5C128 276.3 160 276.7 192 277.7C224 278.7 256 280.3 288 281.3C320 282.3 352 282.7 384 279.7C416 276.7 448 270.3 480 268.5C512 266.7 544 269.3 576 269.8C608 270.3 640 268.7 672 269.7C704 270.7 736 274.3 768 277C800 279.7 832 281.3 864 281.2C896 281 928 279 944 278L960 277L960 301L944 301C928 301 896 301 864 301C832 301 800 301 768 301C736 301 704 301 672 301C640 301 608 301 576 301C544 301 512 301 480 301C448 301 416 301 384 301C352 301 320 301 288 301C256 301 224 301 192 301C160 301 128 301 96 301C64 301 32 301 16 301L0 301Z" fill="#715df2"></path></svg>