<svg id="visual" viewBox="0 0 900 600" width="900" height="600" xmlns="http://www.w3.org/2000/svg" xmlns:xlink="http://www.w3.org/1999/xlink" version="1.1"><rect x="0" y="0" width="900" height="600" fill="#2b2c2f"></rect><path d="M0 405L21.5 411C43 417 86 429 128.8 424.5C171.7 420 214.3 399 257.2 386.2C300 373.3 343 368.7 385.8 371.8C428.7 375 471.3 386 514.2 390.5C557 395 600 393 642.8 396.3C685.7 399.7 728.3 408.3 771.2 401.8C814 395.3 857 373.7 878.5 362.8L900 352L900 601L878.5 601C857 601 814 601 771.2 601C728.3 601 685.7 601 642.8 601C600 601 557 601 514.2 601C471.3 601 428.7 601 385.8 601C343 601 300 601 257.2 601C214.3 601 171.7 601 128.8 601C86 601 43 601 21.5 601L0 601Z" fill="#6600ff"></path><path d="M0 431L21.5 431.5C43 432 86 433 128.8 438.7C171.7 444.3 214.3 454.7 257.2 453.7C300 452.7 343 440.3 385.8 433.2C428.7 426 471.3 424 514.2 428.5C557 433 600 444 642.8 450.3C685.7 456.7 728.3 458.3 771.2 457.2C814 456 857 452 878.5 450L900 448L900 601L878.5 601C857 601 814 601 771.2 601C728.3 601 685.7 601 642.8 601C600 601 557 601 514.2 601C471.3 601 428.7 601 385.8 601C343 601 300 601 257.2 601C214.3 601 171.7 601 128.8 601C86 601 43 601 21.5 601L0 601Z" fill="#672bfd"></path><path d="M0 444L21.5 445C43 446 86 448 128.8 458.7C171.7 469.3 214.3 488.7 257.2 497C300 505.3 343 502.7 385.8 495.8C428.7 489 471.3 478 514.2 479.5C557 481 600 495 642.8 493C685.7 491 728.3 473 771.2 464.7C814 456.3 857 457.7 878.5 458.3L900 459L900 601L878.5 601C857 601 814 601 771.2 601C728.3 601 685.7 601 642.8 601C600 601 557 601 514.2 601C471.3 601 428.7 601 385.8 601C343 601 300 601 257.2 601C214.3 601 171.7 601 128.8 601C86 601 43 601 21.5 601L0 601Z" fill="#6940fa"></path><path d="M0 506L21.5 505.7C43 505.3 86 504.7 128.8 504.7C171.7 504.7 214.3 505.3 257.2 502.2C300 499 343 492 385.8 492.2C428.7 492.3 471.3 499.7 514.2 504.8C557 510 600 513 642.8 514.5C685.7 516 728.3 516 771.2 519.8C814 523.7 857 531.3 878.5 535.2L900 539L900 601L878.5 601C857 601 814 601 771.2 601C728.3 601 685.7 601 642.8 601C600 601 557 601 514.2 601C471.3 601 428.7 601 385.8 601C343 601 300 601 257.2 601C214.3 601 171.7 601 128.8 601C86 601 43 601 21.5 601L0 601Z" fill="#6c50f6"></path><path d="M0 566L21.5 567.2C43 568.3 86 570.7 128.8 568.3C171.7 566 214.3 559 257.2 553.5C300 548 343 544 385.8 543.2C428.7 542.3 471.3 544.7 514.2 549.3C557 554 600 561 642.8 564.2C685.7 567.3 728.3 566.7 771.2 563.3C814 560 857 554 878.5 551L900 548L900 601L878.5 601C857 601 814 601 771.2 601C728.3 601 685.7 601 642.8 601C600 601 557 601 514.2 601C471.3 601 428.7 601 385.8 601C343 601 300 601 257.2 601C214.3 601 171.7 601 128.8 601C86 601 43 601 21.5 601L0 601Z" fill="#715df2"></path></svg>