<svg id="visual" viewBox="0 0 1440 320" width="1440" height="320" xmlns="http://www.w3.org/2000/svg" xmlns:xlink="http://www.w3.org/1999/xlink" version="1.1"><rect x="0" y="0" width="1440" height="320" fill="#020202"></rect><path d="M0 98L16 124C32 150 64 202 96 228.2C128 254.3 160 254.7 192 235.5C224 216.3 256 177.7 288 163.2C320 148.7 352 158.3 384 153.8C416 149.3 448 130.7 480 147.8C512 165 544 218 576 236.2C608 254.3 640 237.7 672 234.7C704 231.7 736 242.3 768 244.2C800 246 832 239 864 215.7C896 192.3 928 152.7 960 161.8C992 171 1024 229 1056 219.7C1088 210.3 1120 133.7 1152 112.3C1184 91 1216 125 1248 146.7C1280 168.3 1312 177.7 1344 178.5C1376 179.3 1408 171.7 1424 167.8L1440 164L1440 321L1424 321C1408 321 1376 321 1344 321C1312 321 1280 321 1248 321C1216 321 1184 321 1152 321C1120 321 1088 321 1056 321C1024 321 992 321 960 321C928 321 896 321 864 321C832 321 800 321 768 321C736 321 704 321 672 321C640 321 608 321 576 321C544 321 512 321 480 321C448 321 416 321 384 321C352 321 320 321 288 321C256 321 224 321 192 321C160 321 128 321 96 321C64 321 32 321 16 321L0 321Z" fill="#0066FF" stroke-linecap="round" stroke-linejoin="miter"></path></svg>