<svg id="visual" viewBox="0 0 1440 320" width="1440" height="320" xmlns="http://www.w3.org/2000/svg" xmlns:xlink="http://www.w3.org/1999/xlink" version="1.1"><rect x="0" y="0" width="1440" height="320" fill="#020202"></rect><path d="M0 205L8.3 203.5C16.7 202 33.3 199 49.8 179.8C66.3 160.7 82.7 125.3 99.2 117C115.7 108.7 132.3 127.3 149 127.8C165.7 128.3 182.3 110.7 198.8 121.7C215.3 132.7 231.7 172.3 248.2 169.2C264.7 166 281.3 120 298 103.5C314.7 87 331.3 100 347.8 98.8C364.3 97.7 380.7 82.3 397.2 100.3C413.7 118.3 430.3 169.7 447 191.2C463.7 212.7 480.3 204.3 496.8 178.2C513.3 152 529.7 108 546.2 115.7C562.7 123.3 579.3 182.7 596 196.8C612.7 211 629.3 180 645.8 179.3C662.3 178.7 678.7 208.3 695.2 219.2C711.7 230 728.3 222 744.8 224C761.3 226 777.7 238 794.2 239.5C810.7 241 827.3 232 844 222C860.7 212 877.3 201 893.8 176.3C910.3 151.7 926.7 113.3 943.2 124.2C959.7 135 976.3 195 993 224.5C1009.7 254 1026.3 253 1042.8 220.5C1059.3 188 1075.7 124 1092.2 128.2C1108.7 132.3 1125.3 204.7 1142 213C1158.7 221.3 1175.3 165.7 1191.8 145.7C1208.3 125.7 1224.7 141.3 1241.2 130.8C1257.7 120.3 1274.3 83.7 1291 63.8C1307.7 44 1324.3 41 1340.8 41.7C1357.3 42.3 1373.7 46.7 1390.2 68.3C1406.7 90 1423.3 129 1431.7 148.5L1440 168L1440 321L1431.7 321C1423.3 321 1406.7 321 1390.2 321C1373.7 321 1357.3 321 1340.8 321C1324.3 321 1307.7 321 1291 321C1274.3 321 1257.7 321 1241.2 321C1224.7 321 1208.3 321 1191.8 321C1175.3 321 1158.7 321 1142 321C1125.3 321 1108.7 321 1092.2 321C1075.7 321 1059.3 321 1042.8 321C1026.3 321 1009.7 321 993 321C976.3 321 959.7 321 943.2 321C926.7 321 910.3 321 893.8 321C877.3 321 860.7 321 844 321C827.3 321 810.7 321 794.2 321C777.7 321 761.3 321 744.8 321C728.3 321 711.7 321 695.2 321C678.7 321 662.3 321 645.8 321C629.3 321 612.7 321 596 321C579.3 321 562.7 321 546.2 321C529.7 321 513.3 321 496.8 321C480.3 321 463.7 321 447 321C430.3 321 413.7 321 397.2 321C380.7 321 364.3 321 347.8 321C331.3 321 314.7 321 298 321C281.3 321 264.7 321 248.2 321C231.7 321 215.3 321 198.8 321C182.3 321 165.7 321 149 321C132.3 321 115.7 321 99.2 321C82.7 321 66.3 321 49.8 321C33.3 321 16.7 321 8.3 321L0 321Z" fill="#0066FF" stroke-linecap="round" stroke-linejoin="miter"></path></svg>