<svg id="visual" viewBox="0 0 1440 320" width="1440" height="320" xmlns="http://www.w3.org/2000/svg" xmlns:xlink="http://www.w3.org/1999/xlink" version="1.1"><rect x="0" y="0" width="1440" height="320" fill="#020202"></rect><path d="M0 59L16 61.7C32 64.3 64 69.7 96 78.3C128 87 160 99 192 126.5C224 154 256 197 288 224C320 251 352 262 384 263.5C416 265 448 257 480 259C512 261 544 273 576 238.2C608 203.3 640 121.7 672 114.3C704 107 736 174 768 212C800 250 832 259 864 247.3C896 235.7 928 203.3 960 175.2C992 147 1024 123 1056 116.5C1088 110 1120 121 1152 135.8C1184 150.7 1216 169.3 1248 160.8C1280 152.3 1312 116.7 1344 115.2C1376 113.7 1408 146.3 1424 162.7L1440 179L1440 321L1424 321C1408 321 1376 321 1344 321C1312 321 1280 321 1248 321C1216 321 1184 321 1152 321C1120 321 1088 321 1056 321C1024 321 992 321 960 321C928 321 896 321 864 321C832 321 800 321 768 321C736 321 704 321 672 321C640 321 608 321 576 321C544 321 512 321 480 321C448 321 416 321 384 321C352 321 320 321 288 321C256 321 224 321 192 321C160 321 128 321 96 321C64 321 32 321 16 321L0 321Z" fill="#0066FF" stroke-linecap="round" stroke-linejoin="miter"></path></svg>