<svg id="visual" viewBox="0 0 960 100" width="960" height="100" xmlns="http://www.w3.org/2000/svg" xmlns:xlink="http://www.w3.org/1999/xlink" version="1.1"><rect x="0" y="0" width="960" height="100" fill="#2b2c2f"></rect><path d="M0 64L16 63C32 62 64 60 96 61.3C128 62.7 160 67.3 192 67.3C224 67.3 256 62.7 288 62.8C320 63 352 68 384 69.3C416 70.7 448 68.3 480 67.7C512 67 544 68 576 68.7C608 69.3 640 69.7 672 69.2C704 68.7 736 67.3 768 66.7C800 66 832 66 864 64.8C896 63.7 928 61.3 944 60.2L960 59L960 101L944 101C928 101 896 101 864 101C832 101 800 101 768 101C736 101 704 101 672 101C640 101 608 101 576 101C544 101 512 101 480 101C448 101 416 101 384 101C352 101 320 101 288 101C256 101 224 101 192 101C160 101 128 101 96 101C64 101 32 101 16 101L0 101Z" fill="#715df2"></path><path d="M0 67L16 68C32 69 64 71 96 73C128 75 160 77 192 76.2C224 75.3 256 71.7 288 71.5C320 71.3 352 74.7 384 74.7C416 74.7 448 71.3 480 69.2C512 67 544 66 576 66C608 66 640 67 672 67.5C704 68 736 68 768 69.5C800 71 832 74 864 74C896 74 928 71 944 69.5L960 68L960 101L944 101C928 101 896 101 864 101C832 101 800 101 768 101C736 101 704 101 672 101C640 101 608 101 576 101C544 101 512 101 480 101C448 101 416 101 384 101C352 101 320 101 288 101C256 101 224 101 192 101C160 101 128 101 96 101C64 101 32 101 16 101L0 101Z" fill="#6c50f6"></path><path d="M0 75L16 75.3C32 75.7 64 76.3 96 76.8C128 77.3 160 77.7 192 76.8C224 76 256 74 288 74.5C320 75 352 78 384 80C416 82 448 83 480 81.7C512 80.3 544 76.7 576 76.7C608 76.7 640 80.3 672 80.7C704 81 736 78 768 77.5C800 77 832 79 864 80.2C896 81.3 928 81.7 944 81.8L960 82L960 101L944 101C928 101 896 101 864 101C832 101 800 101 768 101C736 101 704 101 672 101C640 101 608 101 576 101C544 101 512 101 480 101C448 101 416 101 384 101C352 101 320 101 288 101C256 101 224 101 192 101C160 101 128 101 96 101C64 101 32 101 16 101L0 101Z" fill="#6940fa"></path><path d="M0 87L16 86.2C32 85.3 64 83.7 96 83.8C128 84 160 86 192 86.3C224 86.7 256 85.3 288 84.2C320 83 352 82 384 81.8C416 81.7 448 82.3 480 83.3C512 84.3 544 85.7 576 85.5C608 85.3 640 83.7 672 83.5C704 83.3 736 84.7 768 85.5C800 86.3 832 86.7 864 86.8C896 87 928 87 944 87L960 87L960 101L944 101C928 101 896 101 864 101C832 101 800 101 768 101C736 101 704 101 672 101C640 101 608 101 576 101C544 101 512 101 480 101C448 101 416 101 384 101C352 101 320 101 288 101C256 101 224 101 192 101C160 101 128 101 96 101C64 101 32 101 16 101L0 101Z" fill="#672bfd"></path><path d="M0 90L16 90.2C32 90.3 64 90.7 96 91C128 91.3 160 91.7 192 92C224 92.3 256 92.7 288 93C320 93.3 352 93.7 384 92.7C416 91.7 448 89.3 480 88.7C512 88 544 89 576 89.2C608 89.3 640 88.7 672 89C704 89.3 736 90.7 768 91.7C800 92.7 832 93.3 864 93.3C896 93.3 928 92.7 944 92.3L960 92L960 101L944 101C928 101 896 101 864 101C832 101 800 101 768 101C736 101 704 101 672 101C640 101 608 101 576 101C544 101 512 101 480 101C448 101 416 101 384 101C352 101 320 101 288 101C256 101 224 101 192 101C160 101 128 101 96 101C64 101 32 101 16 101L0 101Z" fill="#6600ff"></path></svg>