<svg id="visual" viewBox="0 0 900 600" width="900" height="600" xmlns="http://www.w3.org/2000/svg" xmlns:xlink="http://www.w3.org/1999/xlink" version="1.1"><rect x="0" y="0" width="900" height="600" fill="#001220"></rect><path d="M0 429L21.5 426.8C43 424.7 86 420.3 128.8 411.5C171.7 402.7 214.3 389.3 257.2 389.2C300 389 343 402 385.8 401C428.7 400 471.3 385 514.2 387C557 389 600 408 642.8 406.8C685.7 405.7 728.3 384.3 771.2 378.7C814 373 857 383 878.5 388L900 393L900 601L878.5 601C857 601 814 601 771.2 601C728.3 601 685.7 601 642.8 601C600 601 557 601 514.2 601C471.3 601 428.7 601 385.8 601C343 601 300 601 257.2 601C214.3 601 171.7 601 128.8 601C86 601 43 601 21.5 601L0 601Z" fill="#fa7268"></path><path d="M0 414L21.5 411.5C43 409 86 404 128.8 405.3C171.7 406.7 214.3 414.3 257.2 416.3C300 418.3 343 414.7 385.8 419.5C428.7 424.3 471.3 437.7 514.2 445.2C557 452.7 600 454.3 642.8 456C685.7 457.7 728.3 459.3 771.2 448.8C814 438.3 857 415.7 878.5 404.3L900 393L900 601L878.5 601C857 601 814 601 771.2 601C728.3 601 685.7 601 642.8 601C600 601 557 601 514.2 601C471.3 601 428.7 601 385.8 601C343 601 300 601 257.2 601C214.3 601 171.7 601 128.8 601C86 601 43 601 21.5 601L0 601Z" fill="#ef5f67"></path><path d="M0 475L21.5 473C43 471 86 467 128.8 461.7C171.7 456.3 214.3 449.7 257.2 453C300 456.3 343 469.7 385.8 475.3C428.7 481 471.3 479 514.2 471.7C557 464.3 600 451.7 642.8 449C685.7 446.3 728.3 453.7 771.2 463.3C814 473 857 485 878.5 491L900 497L900 601L878.5 601C857 601 814 601 771.2 601C728.3 601 685.7 601 642.8 601C600 601 557 601 514.2 601C471.3 601 428.7 601 385.8 601C343 601 300 601 257.2 601C214.3 601 171.7 601 128.8 601C86 601 43 601 21.5 601L0 601Z" fill="#e34c67"></path><path d="M0 541L21.5 540.7C43 540.3 86 539.7 128.8 538.2C171.7 536.7 214.3 534.3 257.2 526.5C300 518.7 343 505.3 385.8 503.2C428.7 501 471.3 510 514.2 508.5C557 507 600 495 642.8 490.3C685.7 485.7 728.3 488.3 771.2 494.3C814 500.3 857 509.7 878.5 514.3L900 519L900 601L878.5 601C857 601 814 601 771.2 601C728.3 601 685.7 601 642.8 601C600 601 557 601 514.2 601C471.3 601 428.7 601 385.8 601C343 601 300 601 257.2 601C214.3 601 171.7 601 128.8 601C86 601 43 601 21.5 601L0 601Z" fill="#d53867"></path><path d="M0 542L21.5 542.2C43 542.3 86 542.7 128.8 541.3C171.7 540 214.3 537 257.2 533.8C300 530.7 343 527.3 385.8 532.5C428.7 537.7 471.3 551.3 514.2 558.7C557 566 600 567 642.8 564.2C685.7 561.3 728.3 554.7 771.2 548.8C814 543 857 538 878.5 535.5L900 533L900 601L878.5 601C857 601 814 601 771.2 601C728.3 601 685.7 601 642.8 601C600 601 557 601 514.2 601C471.3 601 428.7 601 385.8 601C343 601 300 601 257.2 601C214.3 601 171.7 601 128.8 601C86 601 43 601 21.5 601L0 601Z" fill="#c62368"></path></svg>