<svg id="visual" viewBox="0 0 1440 320" width="1440" height="320" xmlns="http://www.w3.org/2000/svg" xmlns:xlink="http://www.w3.org/1999/xlink" version="1.1"><rect x="0" y="0" width="1440" height="320" fill="#020202"></rect><path d="M0 256L8.3 230C16.7 204 33.3 152 49.8 140C66.3 128 82.7 156 99.2 145.8C115.7 135.7 132.3 87.3 149 83.2C165.7 79 182.3 119 198.8 151C215.3 183 231.7 207 248.2 219.7C264.7 232.3 281.3 233.7 298 235.7C314.7 237.7 331.3 240.3 347.8 208.8C364.3 177.3 380.7 111.7 397.2 93.3C413.7 75 430.3 104 447 131.5C463.7 159 480.3 185 496.8 180.8C513.3 176.7 529.7 142.3 546.2 119.2C562.7 96 579.3 84 596 98.2C612.7 112.3 629.3 152.7 645.8 147C662.3 141.3 678.7 89.7 695.2 72.8C711.7 56 728.3 74 744.8 82.5C761.3 91 777.7 90 794.2 90.2C810.7 90.3 827.3 91.7 844 99.7C860.7 107.7 877.3 122.3 893.8 147C910.3 171.7 926.7 206.3 943.2 208C959.7 209.7 976.3 178.3 993 148.7C1009.7 119 1026.3 91 1042.8 95.5C1059.3 100 1075.7 137 1092.2 166.3C1108.7 195.7 1125.3 217.3 1142 228C1158.7 238.7 1175.3 238.3 1191.8 215.3C1208.3 192.3 1224.7 146.7 1241.2 142.2C1257.7 137.7 1274.3 174.3 1291 200.8C1307.7 227.3 1324.3 243.7 1340.8 233.2C1357.3 222.7 1373.7 185.3 1390.2 170.3C1406.7 155.3 1423.3 162.7 1431.7 166.3L1440 170L1440 321L1431.7 321C1423.3 321 1406.7 321 1390.2 321C1373.7 321 1357.3 321 1340.8 321C1324.3 321 1307.7 321 1291 321C1274.3 321 1257.7 321 1241.2 321C1224.7 321 1208.3 321 1191.8 321C1175.3 321 1158.7 321 1142 321C1125.3 321 1108.7 321 1092.2 321C1075.7 321 1059.3 321 1042.8 321C1026.3 321 1009.7 321 993 321C976.3 321 959.7 321 943.2 321C926.7 321 910.3 321 893.8 321C877.3 321 860.7 321 844 321C827.3 321 810.7 321 794.2 321C777.7 321 761.3 321 744.8 321C728.3 321 711.7 321 695.2 321C678.7 321 662.3 321 645.8 321C629.3 321 612.7 321 596 321C579.3 321 562.7 321 546.2 321C529.7 321 513.3 321 496.8 321C480.3 321 463.7 321 447 321C430.3 321 413.7 321 397.2 321C380.7 321 364.3 321 347.8 321C331.3 321 314.7 321 298 321C281.3 321 264.7 321 248.2 321C231.7 321 215.3 321 198.8 321C182.3 321 165.7 321 149 321C132.3 321 115.7 321 99.2 321C82.7 321 66.3 321 49.8 321C33.3 321 16.7 321 8.3 321L0 321Z" fill="#0066FF" stroke-linecap="round" stroke-linejoin="miter"></path></svg>